<svg width="122" height="34" viewBox="0 0 122 34" fill="none" xmlns="http://www.w3.org/2000/svg">
<path d="M11.005 2.22C15.6017 2.22 19.02 3.27 21.26 5.37C23.5 7.44667 24.62 10.4333 24.62 14.33C24.62 16.8733 24.0717 19.1017 22.975 21.015C21.8783 22.905 20.28 24.375 18.18 25.425C16.1033 26.475 13.6067 27 10.69 27C10.3167 27 9.82667 26.9883 9.22 26.965C8.61333 26.9417 7.98333 26.93 7.33 26.93C6.67667 26.9067 6.09333 26.895 5.58 26.895C4.55333 26.895 3.53833 26.9067 2.535 26.93C1.555 26.93 0.773333 26.9533 0.19 27V26.3C0.936667 26.2533 1.49667 26.16 1.87 26.02C2.24333 25.88 2.48833 25.6 2.605 25.18C2.745 24.76 2.815 24.13 2.815 23.29V5.93C2.815 5.06666 2.745 4.43667 2.605 4.04C2.48833 3.62 2.23167 3.34 1.835 3.2C1.46167 3.03667 0.913333 2.94333 0.19 2.92V2.22C0.773333 2.24333 1.555 2.27833 2.535 2.325C3.53833 2.34833 4.53 2.34833 5.51 2.325C6.35 2.30167 7.295 2.27833 8.345 2.255C9.41833 2.23167 10.305 2.22 11.005 2.22ZM10.97 2.85C9.89667 2.85 9.19667 3.04833 8.87 3.445C8.54333 3.84167 8.38 4.64667 8.38 5.86V23.36C8.38 24.5733 8.54333 25.3783 8.87 25.775C9.22 26.1717 9.93167 26.37 11.005 26.37C12.965 26.37 14.505 25.915 15.625 25.005C16.7683 24.0717 17.585 22.7183 18.075 20.945C18.565 19.1717 18.81 17.0133 18.81 14.47C18.81 11.8567 18.5417 9.69833 18.005 7.995C17.4917 6.26833 16.6633 4.985 15.52 4.145C14.3767 3.28166 12.86 2.85 10.97 2.85ZM36.0429 8.415C38.0962 8.415 39.7062 9.02167 40.8729 10.235C42.0395 11.4483 42.6229 13.4317 42.6229 16.185H31.1079L31.0379 15.52H38.2129C38.2362 14.3767 38.1662 13.3267 38.0029 12.37C37.8395 11.39 37.5829 10.6083 37.2329 10.025C36.8829 9.44167 36.4162 9.15 35.8329 9.15C35.0162 9.15 34.3162 9.66333 33.7329 10.69C33.1729 11.7167 32.8345 13.42 32.7179 15.8L32.8229 16.01C32.7995 16.29 32.7762 16.5817 32.7529 16.885C32.7529 17.1883 32.7529 17.5033 32.7529 17.83C32.7529 19.44 32.9745 20.7467 33.4179 21.75C33.8845 22.7533 34.4679 23.4883 35.1679 23.955C35.8679 24.3983 36.5795 24.62 37.3029 24.62C37.7929 24.62 38.2945 24.55 38.8079 24.41C39.3445 24.2467 39.8812 23.9667 40.4179 23.57C40.9545 23.15 41.4562 22.5667 41.9229 21.82L42.5529 22.03C42.2729 22.9167 41.8295 23.78 41.2229 24.62C40.6162 25.46 39.8462 26.1483 38.9129 26.685C37.9795 27.2217 36.8595 27.49 35.5529 27.49C33.9662 27.49 32.5662 27.1517 31.3529 26.475C30.1395 25.7983 29.1829 24.7717 28.4829 23.395C27.8062 22.0183 27.4679 20.2683 27.4679 18.145C27.4679 15.975 27.8295 14.1667 28.5529 12.72C29.2995 11.2733 30.3145 10.2 31.5979 9.5C32.9045 8.77667 34.3862 8.415 36.0429 8.415Z" fill="white"/>
<path d="M66.2446 14.19L66.1396 14.89H52.5946L52.6996 14.19H66.2446ZM58.8596 7.155C58.1362 7.155 57.4479 7.07333 56.7946 6.91C56.1412 6.72333 55.5112 6.51333 54.9046 6.28C54.3212 6.04667 53.7379 5.84833 53.1546 5.685C52.5712 5.49833 51.9762 5.405 51.3696 5.405C50.7162 5.405 50.1912 5.56833 49.7946 5.895C49.4212 6.22167 49.2346 6.72333 49.2346 7.4C49.2579 8.14667 49.5729 8.75333 50.1796 9.22C50.8096 9.66333 51.8129 9.955 53.1896 10.095C53.1896 10.095 53.1662 10.2117 53.1196 10.445C53.0962 10.655 53.0846 10.76 53.0846 10.76C51.9412 10.6667 50.9029 10.4333 49.9696 10.06C49.0596 9.66333 48.3362 9.115 47.7996 8.415C47.2862 7.69167 47.0179 6.81667 46.9946 5.79C46.9712 4.43667 47.3796 3.32833 48.2196 2.465C49.0596 1.57833 50.3079 1.135 51.9646 1.135C52.8746 1.135 53.6796 1.26333 54.3796 1.52C55.0796 1.75333 55.7329 2.045 56.3396 2.395C56.9462 2.72167 57.5529 3.06 58.1596 3.41C58.7896 3.76 59.4546 4.06333 60.1546 4.32C60.8546 4.55333 61.6596 4.67 62.5696 4.67C63.5029 4.67 64.4829 4.55333 65.5096 4.32C66.5362 4.08667 67.5279 3.74833 68.4846 3.305C68.9746 2.55833 69.4529 1.98667 69.9196 1.59C70.3862 1.19333 70.7946 1.14667 71.1446 1.45C71.4246 1.68333 71.4129 1.99833 71.1096 2.395C70.8062 2.79167 70.0362 3.22333 68.7996 3.69C67.1429 5.02 65.8012 6.77 64.7746 8.94C63.7479 11.11 62.8846 13.5483 62.1846 16.255L60.0146 24.725C59.6179 26.3117 58.9996 27.7817 58.1596 29.135C57.3196 30.4883 56.1996 31.5617 54.7996 32.355C53.4229 33.1717 51.7079 33.58 49.6546 33.58C48.7446 33.58 47.9162 33.4867 47.1696 33.3C46.4462 33.1367 45.8629 32.8567 45.4196 32.46C44.9762 32.0867 44.7546 31.585 44.7546 30.955C44.7546 30.2083 45.0112 29.5783 45.5246 29.065C46.0379 28.5517 46.7612 28.295 47.6946 28.295C48.4646 28.295 49.1062 28.47 49.6196 28.82C50.1329 29.1933 50.4012 29.7183 50.4246 30.395C50.4246 30.955 50.2496 31.445 49.8996 31.865C49.5729 32.285 49.1062 32.6233 48.4996 32.88C48.6629 32.9267 48.8262 32.95 48.9896 32.95C49.1529 32.9733 49.3162 32.985 49.4796 32.985C50.1796 32.985 50.7629 32.7867 51.2296 32.39C51.7196 31.9933 52.1396 31.4217 52.4896 30.675C52.8396 29.9283 53.1662 29.03 53.4696 27.98C53.7962 26.9533 54.1229 25.81 54.4496 24.55L56.3396 17.83C56.8062 16.0567 57.4129 14.505 58.1596 13.175C58.9062 11.845 59.7579 10.6667 60.7146 9.64C61.6946 8.59 62.7679 7.62167 63.9346 6.735C65.1246 5.84833 66.3962 4.96167 67.7496 4.075C66.8629 4.355 66.0579 4.68167 65.3346 5.055C64.6112 5.405 63.9112 5.74333 63.2346 6.07C62.5812 6.39666 61.9046 6.665 61.2046 6.875C60.5046 7.06167 59.7229 7.155 58.8596 7.155ZM81.4562 14.715C80.5928 17.2817 79.7645 19.405 78.9712 21.085C78.1778 22.7417 77.3962 24.0367 76.6262 24.97C75.8795 25.88 75.1095 26.5333 74.3162 26.93C73.5228 27.3033 72.6828 27.49 71.7962 27.49C70.8162 27.49 70.0578 27.28 69.5212 26.86C69.0078 26.44 68.7162 25.8333 68.6462 25.04C68.5995 24.2467 68.7512 23.3017 69.1012 22.205L72.4962 11.88C72.7295 11.2033 72.7762 10.7483 72.6362 10.515C72.5195 10.2583 72.3212 10.13 72.0412 10.13C71.7378 10.13 71.3995 10.305 71.0262 10.655C70.6528 10.9817 70.2562 11.7283 69.8362 12.895L69.2062 14.575H68.5412L69.4162 12.02C69.7662 11.04 70.1978 10.2933 70.7112 9.78C71.2478 9.26667 71.8078 8.91667 72.3912 8.73C72.9978 8.52 73.5695 8.415 74.1062 8.415C75.1562 8.415 75.9378 8.64833 76.4512 9.115C76.9645 9.55833 77.2445 10.2 77.2912 11.04C77.3378 11.8567 77.1745 12.8367 76.8012 13.98L73.6512 23.43C73.1378 24.97 73.2545 25.74 74.0012 25.74C74.4445 25.74 74.9462 25.4483 75.5062 24.865C76.0662 24.2817 76.6495 23.4767 77.2562 22.45C77.8862 21.4233 78.5045 20.2217 79.1112 18.845C79.7178 17.4683 80.3012 15.9867 80.8612 14.4C81.4212 12.8133 81.9112 11.1917 82.3312 9.535L81.4562 14.715ZM83.1712 24.025C83.0078 24.6083 82.9378 25.0517 82.9612 25.355C82.9845 25.635 83.1828 25.775 83.5562 25.775C83.9762 25.775 84.3612 25.5767 84.7112 25.18C85.0845 24.76 85.4462 24.0367 85.7962 23.01L86.4612 21.225H87.1262L86.1812 23.885C85.8778 24.795 85.4695 25.5183 84.9562 26.055C84.4662 26.5683 83.9178 26.93 83.3112 27.14C82.7278 27.3733 82.1212 27.49 81.4912 27.49C80.8612 27.49 80.3245 27.385 79.8812 27.175C79.4612 26.965 79.1345 26.6733 78.9012 26.3C78.6678 25.8567 78.5628 25.3317 78.5862 24.725C78.6328 24.095 78.7495 23.3833 78.9362 22.59L82.4712 8.905C83.4278 8.88167 84.3262 8.835 85.1662 8.765C86.0295 8.695 86.8228 8.57833 87.5462 8.415L83.1712 24.025ZM94.045 27H89.11L93.38 11.88C93.5433 11.25 93.59 10.8067 93.52 10.55C93.4733 10.27 93.2983 10.13 92.995 10.13C92.575 10.13 92.19 10.34 91.84 10.76C91.49 11.1567 91.1166 11.8683 90.72 12.895L90.055 14.68H89.39L90.335 12.02C90.685 11.0867 91.105 10.3633 91.595 9.85C92.085 9.33667 92.6333 8.975 93.24 8.765C93.87 8.53167 94.5116 8.415 95.165 8.415C95.9116 8.415 96.4833 8.56667 96.88 8.87C97.2766 9.15 97.545 9.535 97.685 10.025C97.825 10.515 97.8716 11.0517 97.825 11.635C97.8016 12.195 97.72 12.755 97.58 13.315L94.045 27ZM103.005 9.185C102.538 9.185 102.037 9.325 101.5 9.605C100.963 9.885 100.415 10.3867 99.855 11.11C99.295 11.8333 98.7 12.8367 98.07 14.12C97.4633 15.4033 96.8333 17.0483 96.18 19.055C95.55 21.0383 94.8966 23.4417 94.22 26.265L94.99 21.54C95.7366 18.9733 96.4133 16.85 97.02 15.17C97.6266 13.49 98.2333 12.16 98.84 11.18C99.47 10.1767 100.123 9.465 100.8 9.045C101.5 8.625 102.293 8.415 103.18 8.415C104.09 8.415 104.79 8.68333 105.28 9.22C105.77 9.75667 106.015 10.4333 106.015 11.25C106.015 11.9033 105.863 12.51 105.56 13.07C105.28 13.6067 104.883 14.05 104.37 14.4C103.88 14.7267 103.32 14.89 102.69 14.89C102.013 14.89 101.488 14.715 101.115 14.365C100.742 13.9917 100.555 13.4667 100.555 12.79C100.555 12.23 100.683 11.7167 100.94 11.25C101.197 10.76 101.547 10.34 101.99 9.99C102.433 9.64 102.923 9.40667 103.46 9.29C103.39 9.26667 103.32 9.24333 103.25 9.22C103.18 9.19667 103.098 9.185 103.005 9.185ZM115.77 24.865L112.025 29.1L109.225 11.915C109.109 11.285 108.992 10.8533 108.875 10.62C108.759 10.3867 108.572 10.27 108.315 10.27C108.082 10.27 107.849 10.4333 107.615 10.76C107.382 11.0633 107.067 11.7633 106.67 12.86L106.04 14.575H105.375L106.25 12.02C106.74 10.5967 107.359 9.64 108.105 9.15C108.852 8.66 109.669 8.415 110.555 8.415C111.512 8.415 112.282 8.68333 112.865 9.22C113.449 9.73333 113.845 10.725 114.055 12.195L115.77 24.865ZM107.405 31.865C108.502 31.3283 109.634 30.5933 110.8 29.66C111.967 28.75 113.157 27.5133 114.37 25.95C115.677 24.34 116.82 22.6017 117.8 20.735C118.78 18.845 119.504 17.0367 119.97 15.31C119.41 14.9833 118.874 14.5983 118.36 14.155C117.87 13.6883 117.474 13.175 117.17 12.615C116.867 12.055 116.727 11.4483 116.75 10.795C116.75 10.0483 116.96 9.465 117.38 9.045C117.8 8.625 118.372 8.415 119.095 8.415C119.912 8.415 120.495 8.695 120.845 9.255C121.219 9.815 121.405 10.5967 121.405 11.6C121.405 12.6967 121.219 13.8983 120.845 15.205C120.472 16.5117 119.959 17.865 119.305 19.265C118.652 20.6417 117.917 21.9833 117.1 23.29C116.284 24.5967 115.42 25.7867 114.51 26.86C113.787 27.77 112.97 28.6217 112.06 29.415C111.174 30.2083 110.229 30.92 109.225 31.55C108.245 32.18 107.219 32.6817 106.145 33.055C105.632 33.2417 105.165 33.37 104.745 33.44C104.325 33.5333 103.964 33.58 103.66 33.58C102.914 33.58 102.33 33.405 101.91 33.055C101.467 32.7283 101.245 32.25 101.245 31.62C101.245 31.0133 101.479 30.5 101.945 30.08C102.389 29.66 102.96 29.45 103.66 29.45C104.407 29.45 105.084 29.66 105.69 30.08C106.32 30.5233 106.892 31.1183 107.405 31.865Z" fill="black"/>
</svg>
